P2
128 64
255
121 140 114 104 110 134 120 97 104 120 133 135 135 132 137 126 126 132 138 129 122 116 115 89 49 109 161 129 111 101 115 124 110 104 104 108 114 117 115 122 129 117 129 131 127 151 158 135 130 125 131 143 139 140 148 135 129 84 49 151 158 143 122 119 130 116 119 114 111 110 119 114 103 103 104 113 113 110 114 112 109 111 119 129 132 123 124 130 119 136 121 30 152 173 153 133 122 123 123 128 127 111 113 110 102 102 102 104 107 106 109 96 109 91 84 103 127 133 134 124 142 159 115 116 57 90 175 135
116 119 120 107 116 119 111 107 119 127 134 132 128 119 126 137 134 143 135 115 125 125 120 74 26 102 118 95 106 106 119 116 113 115 119 127 129 126 119 124 120 124 128 123 120 117 120 132 130 130 132 140 135 143 146 136 123 71 53 135 114 100 96 95 115 107 123 120 112 112 121 120 114 110 112 116 121 125 122 125 123 118 119 129 128 126 120 130 118 122 108 32 154 137 106 95 94 109 103 100 102 109 118 117 113 115 118 122 127 121 113 106 115 103 101 113 121 127 126 114 129 129 114 104 50 117 151 85
107 118 115 104 124 126 116 120 120 118 126 122 116 106 113 124 125 131 119 116 135 131 134 118 34 97 124 115 125 118 124 125 122 121 124 135 137 130 126 128 128 132 137 131 132 128 131 136 138 138 141 144 136 143 152 143 149 77 49 135 125 103 98 104 118 114 123 122 124 122 131 128 123 117 119 124 136 133 127 133 124 126 129 128 127 115 124 130 129 141 129 39 152 132 104 92 97 111 104 107 112 123 132 125 128 130 128 142 141 138 138 132 125 112 117 118 124 129 121 112 124 113 107 98 50 106 124 96
108 124 123 118 126 130 121 113 103 122 132 132 123 124 130 128 125 131 124 125 141 138 148 111 26 102 131 122 124 122 132 130 126 123 127 132 130 128 128 129 128 135 142 139 135 136 136 141 139 141 143 143 139 147 146 150 116 61 46 141 139 105 101 106 121 120 125 121 131 125 133 133 132 127 122 132 137 129 134 129 130 130 126 132 129 120 131 132 122 136 123 45 149 119 109 109 115 116 116 117 125 136 141 135 139 140 142 150 153 139 137 125 122 117 119 123 129 128 120 115 126 120 123 100 52 105 144 114
116 121 126 118 120 122 106 104 111 118 127 124 117 117 114 127 130 125 121 122 134 137 147 116 31 98 134 124 125 123 122 128 126 128 132 132 131 133 137 135 129 132 135 133 132 134 128 137 142 142 139 139 140 148 148 146 133 66 39 169 139 106 102 106 122 120 123 123 124 120 128 133 134 125 123 137 141 128 130 127 128 124 130 136 128 120 126 132 127 140 122 55 150 123 106 105 107 118 116 116 127 130 137 135 138 127 124 137 140 133 126 118 117 115 116 121 127 130 121 113 122 114 114 93 62 115 155 116
116 131 131 115 119 117 107 106 101 113 125 117 114 115 117 126 126 126 129 134 141 145 152 123 40 105 137 127 131 124 132 132 124 128 131 134 135 138 140 139 134 133 137 131 130 133 137 138 140 141 135 139 144 155 155 152 149 76 49 147 130 109 106 116 123 118 132 125 122 120 137 136 131 131 130 145 137 129 132 134 138 134 137 142 134 126 135 147 143 151 128 64 150 131 113 113 115 124 117 118 121 125 141 139 133 131 131 131 133 134 131 123 118 123 120 122 130 134 123 118 127 121 113 106 62 111 150 115
151 154 145 131 132 133 125 125 129 131 128 130 132 128 136 144 143 142 143 151 151 154 147 114 37 95 122 121 135 135 143 142 131 128 148 150 153 152 151 151 149 151 157 148 146 145 141 143 154 152 147 148 146 147 158 153 145 79 58 129 119 112 117 124 127 127 136 133 142 134 145 144 156 150 155 163 154 151 148 154 153 148 150 153 148 143 159 167 139 127 105 49 148 117 117 124 125 134 127 127 126 134 138 132 132 128 124 126 132 141 131 122 125 131 123 130 143 146 134 131 134 125 124 120 59 101 152 124
64 62 57 55 55 57 58 59 61 65 64 71 77 79 81 81 82 84 85 91 88 80 72 63 46 68 59 67 71 71 78 72 63 63 73 76 81 81 79 84 81 81 88 88 83 81 81 75 82 79 76 77 75 82 89 70 58 60 76 78 73 68 55 74 78 75 82 86 80 79 90 87 86 88 91 86 81 80 88 90 84 83 78 81 69 70 70 62 46 54 67 72 77 68 73 76 74 73 71 74 71 72 68 68 76 70 70 78 83 86 84 84 87 86 81 90 96 90 87 88 86 75 79 80 76 79 74 62
67 67 65 66 66 68 70 50 56 65 73 75 76 76 70 74 75 73 74 77 74 72 77 73 74 79 84 90 90 84 81 79 78 74 79 83 77 78 79 84 67 60 71 79 81 86 78 75 66 70 74 75 73 75 77 77 82 79 87 95 98 103 97 99 93 89 91 93 97 97 101 108 102 101 85 66 70 79 80 81 75 70 67 69 70 68 60 60 61 68 75 89 95 93 71 58 73 61 62 65 60 70 59 53 50 52 51 55 61 57 63 69 69 71 73 70 72 68 72 68 78 81 82 87 91 89 93 88
107 93 97 114 116 112 98 34 140 161 131 113 110 112 106 110 111 109 103 106 112 123 110 109 110 116 119 118 118 122 141 134 132 129 133 126 118 120 130 132 65 35 125 121 120 118 106 114 123 129 116 112 139 131 128 127 131 148 147 143 139 143 141 142 151 155 149 161 152 156 172 162 151 142 60 60 140 122 119 116 110 111 113 126 121 111 115 120 118 118 118 112 122 119 115 111 109 113 119 111 113 112 115 119 118 108 119 122 60 133 129 115 97 96 109 112 110 107 104 102 106 107 109 108 106 107 118 121
125 114 124 128 123 124 101 35 122 122 100 95 104 122 113 121 116 118 110 122 132 129 118 114 127 142 133 130 134 134 132 134 141 143 128 130 134 134 134 130 56 32 152 135 133 130 124 137 138 123 126 139 137 138 137 135 131 142 146 147 148 148 142 136 140 136 146 152 139 137 144 128 128 119 53 72 156 126 133 126 122 137 128 121 126 128 138 134 131 129 131 123 130 135 128 125 124 136 135 131 135 138 135 143 145 140 148 126 68 165 109 88 86 100 108 104 114 111 109 106 115 119 113 103 100 113 118 114
126 120 130 128 121 120 103 39 120 117 113 100 108 120 112 115 113 116 120 130 131 124 118 115 126 132 123 124 131 134 138 142 147 139 129 133 136 137 136 137 57 42 150 131 129 115 117 137 135 133 139 136 138 139 138 126 133 150 150 146 148 143 137 134 140 147 150 150 138 135 144 129 131 121 56 73 155 127 138 127 128 143 131 130 130 130 136 133 136 138 134 131 147 144 135 135 132 142 142 143 138 139 138 144 148 145 147 118 49 149 118 102 100 105 108 105 110 119 109 109 124 116 109 110 110 119 117 121
132 119 127 125 117 129 110 50 127 123 113 103 114 122 118 120 124 124 125 127 125 126 125 122 131 137 132 133 133 132 134 140 141 138 137 137 139 138 140 140 58 50 145 130 133 131 134 142 130 131 137 137 144 141 134 125 136 136 140 148 143 137 133 135 139 141 150 154 140 137 147 136 131 123 64 75 157 128 140 132 132 140 133 130 130 132 135 136 135 137 136 137 142 140 140 138 139 151 148 141 143 140 136 143 149 146 149 105 54 153 124 104 99 101 105 106 113 112 104 131 122 121 122 117 113 125 126 123
132 115 128 127 123 133 116 52 136 130 118 112 118 122 119 126 123 126 131 133 131 131 129 127 135 140 150 139 135 134 135 140 142 142 140 141 140 140 144 142 58 51 151 139 137 132 135 138 131 132 135 137 139 140 136 140 136 143 150 155 144 145 148 138 139 144 148 150 139 133 142 133 129 123 65 79 156 126 141 135 130 140 135 128 131 135 137 141 137 139 141 138 148 154 140 138 145 154 150 144 145 141 138 146 151 147 147 103 57 161 123 106 99 105 111 108 113 119 118 128 124 125 122 113 113 130 123 124
126 119 144 154 146 151 134 56 143 137 124 113 120 131 123 126 122 129 128 133 138 132 131 127 136 138 138 128 136 139 137 144 150 146 145 147 147 147 149 142 61 56 158 153 140 130 127 137 139 137 136 132 136 137 134 135 132 147 150 147 144 151 141 131 137 139 150 153 136 141 146 140 134 129 61 77 158 133 144 132 129 145 139 135 133 137 141 141 142 141 139 137 150 147 141 140 145 154 140 145 140 140 142 150 155 151 147 95 58 170 139 120 105 115 110 107 116 121 118 120 126 128 125 123 119 130 126 129
127 129 140 128 116 114 102 47 117 122 116 119 134 133 132 137 135 133 137 142 147 150 147 145 150 150 151 154 156 158 158 163 164 161 157 143 161 154 155 103 51 53 152 138 134 126 143 154 157 149 146 147 139 146 146 147 150 157 157 164 172 150 145 142 149 149 166 161 155 156 163 148 139 131 46 52 107 123 147 134 139 157 150 150 151 149 128 145 151 145 146 151 159 155 150 144 147 156 155 154 146 153 153 164 154 136 135 80 44 151 127 122 114 124 117 119 129 138 136 136 140 140 138 140 139 142 134 141
52 50 46 48 50 50 50 68 70 58 48 40 46 49 48 48 57 54 58 66 69 68 63 67 64 65 64 72 85 82 81 72 72 72 70 53 56 61 69 64 65 82 84 74 71 71 81 77 72 71 64 75 63 72 73 64 60 65 69 67 68 62 71 67 76 72 72 70 68 67 72 62 64 66 64 73 76 84 89 83 82 82 85 88 91 85 73 88 84 81 87 74 70 85 90 85 75 69 62 59 56 59 62 63 48 45 55 47 33 37 48 49 52 59 59 57 60 58 57 58 60 60 56 56 59 57 45 47
78 76 75 73 71 77 84 85 90 89 87 78 69 67 63 68 68 74 72 76 81 74 60 51 58 61 64 75 80 73 79 78 75 68 68 68 62 69 78 78 78 84 88 88 79 82 77 69 67 58 49 53 58 59 60 58 56 63 67 74 75 74 71 68 63 63 63 64 66 64 65 63 65 61 71 87 91 84 80 78 79 71 77 87 82 81 72 51 51 69 79 56 50 68 73 86 80 55 45 43 39 42 37 30 37 40 56 58 58 61 63 53 51 53 54 56 50 52 56 55 54 55 55 59 41 37 66 76
130 125 123 136 136 129 145 148 148 149 152 151 141 139 139 141 135 132 131 138 138 146 115 35 116 147 144 136 125 124 119 120 120 114 114 126 115 108 113 122 116 112 115 118 110 114 115 115 127 124 121 122 122 120 129 116 59 45 77 144 116 106 104 119 119 116 112 111 104 102 103 124 119 101 106 121 120 118 118 113 113 130 134 121 115 112 115 116 120 122 71 24 138 122 104 102 101 103 104 102 100 102 101 110 120 117 110 102 108 114 114 111 110 104 108 118 109 107 108 114 108 109 121 113 54 72 154 125
137 131 136 146 141 129 136 148 147 140 143 147 146 152 160 155 154 142 152 152 150 157 127 40 140 134 120 110 109 117 107 98 101 121 122 119 119 122 120 122 112 116 128 127 125 123 124 129 134 132 135 128 134 139 136 120 51 48 91 140 102 107 109 127 119 122 123 119 115 127 126 127 126 114 119 121 123 118 120 118 121 128 127 124 122 121 128 121 121 124 65 24 151 118 102 96 113 130 116 120 119 111 110 124 129 128 118 111 124 128 118 117 126 118 124 130 131 125 117 121 127 122 126 108 66 96 155 110
140 137 147 147 142 138 139 157 158 149 151 157 157 153 159 156 153 143 156 153 152 157 123 34 124 139 131 119 118 120 107 105 112 130 129 127 125 126 123 120 111 125 129 130 135 130 129 133 134 128 131 130 138 143 140 120 54 60 112 146 109 114 112 129 118 121 122 124 126 136 131 128 121 122 131 131 126 123 126 126 125 120 129 128 125 120 126 121 132 130 60 22 145 132 109 105 120 126 119 129 119 121 124 135 140 135 127 117 132 134 123 128 131 128 134 136 139 137 126 129 136 130 136 116 68 101 161 116
146 146 153 156 149 139 142 158 163 153 156 159 146 143 157 154 148 144 155 153 154 162 124 39 127 147 132 119 117 118 106 106 110 122 123 119 120 119 119 115 121 129 133 135 131 127 133 134 133 130 134 134 142 145 141 121 59 66 118 148 114 114 113 131 118 121 126 129 127 137 132 130 127 126 127 131 130 130 133 125 122 127 138 131 124 121 130 129 132 126 66 26 132 112 119 112 131 140 133 123 121 128 129 140 143 139 129 126 135 139 130 134 135 134 137 141 145 138 129 133 137 134 136 124 71 96 160 114
147 144 150 151 144 134 137 150 150 141 156 152 152 154 162 156 150 143 146 159 159 164 124 43 130 147 126 122 123 121 114 111 115 124 124 130 126 126 121 115 121 125 135 136 130 129 129 138 136 133 137 136 143 147 145 122 60 66 119 149 116 114 115 133 119 120 123 127 127 133 133 133 130 129 131 133 134 138 134 129 130 135 136 137 129 126 133 137 139 143 78 43 145 132 128 115 134 136 129 129 129 132 140 149 144 144 135 131 140 143 140 140 139 136 139 148 148 140 132 135 141 137 140 132 69 90 160 124
151 148 153 154 142 135 140 153 156 161 167 167 153 154 164 164 165 152 165 186 183 184 126 36 121 142 132 125 121 121 117 113 115 127 131 129 124 127 121 118 124 125 135 136 136 129 127 133 140 133 136 139 147 150 146 126 67 67 124 156 127 133 135 143 126 127 126 132 129 136 140 137 135 128 131 136 134 135 130 135 135 137 143 140 135 137 151 157 157 151 75 55 163 141 119 122 140 135 131 133 133 134 142 139 150 150 134 137 144 146 142 142 142 139 142 147 152 144 137 148 148 146 148 115 61 87 165 126
130 132 137 134 130 132 135 148 155 152 152 152 154 158 161 161 156 151 156 140 134 126 85 23 88 122 117 109 121 128 131 119 120 138 151 146 146 146 125 134 153 161 169 165 168 155 155 149 139 157 154 151 149 135 150 125 68 69 119 152 131 136 135 151 109 132 149 148 144 148 149 152 145 148 144 150 151 147 148 153 151 149 144 139 135 139 147 137 106 110 65 63 149 122 117 118 131 132 138 136 132 137 136 146 149 143 136 136 144 147 146 144 148 143 145 150 153 142 137 124 124 126 128 81 67 74 108 103
54 60 63 56 54 49 52 55 51 49 55 50 45 37 34 37 47 48 41 35 41 39 40 46 54 56 55 54 54 46 53 56 58 63 68 69 65 71 68 73 78 78 65 67 75 68 73 74 73 82 77 73 69 72 72 65 65 79 91 87 81 72 71 74 73 79 84 89 89 91 92 87 80 79 80 88 89 96 96 94 93 84 76 72 74 75 66 60 61 67 71 77 76 73 71 65 63 64 62 63 62 62 59 49 64 68 75 78 80 82 78 75 74 72 71 69 66 60 60 56 54 52 46 54 72 82 75 75
96 103 105 112 112 107 106 68 52 99 107 102 99 96 90 85 86 83 68 67 72 66 61 56 56 97 105 91 74 73 66 65 69 88 92 91 82 91 95 85 77 46 92 126 113 100 91 98 97 102 101 102 94 95 94 94 100 103 102 106 102 92 88 86 93 111 119 104 99 106 107 98 97 98 72 86 100 106 110 112 109 102 102 103 105 107 103 104 104 97 98 77 90 109 97 80 84 98 101 101 106 105 112 103 104 109 110 81 83 99 101 103 103 100 99 96 96 92 84 88 91 89 93 90 91 108 106 111
146 140 141 149 141 147 144 62 65 153 127 128 131 133 125 118 113 116 124 136 129 129 126 120 114 128 137 136 132 125 125 131 129 136 140 139 137 141 138 123 85 28 129 142 125 103 101 119 106 118 115 122 116 118 119 121 115 104 103 112 109 114 121 110 110 115 119 115 115 122 119 111 115 117 72 134 143 145 145 138 124 119 114 116 123 125 128 128 124 123 119 113 129 137 140 148 147 151 157 156 158 161 154 151 163 156 144 74 125 145 106 124 118 127 137 122 113 120 113 118 116 113 122 113 113 123 118 122
149 141 149 160 149 148 138 51 40 129 133 141 129 129 126 120 121 125 132 136 130 138 140 129 127 133 141 140 137 133 138 137 140 139 141 141 136 140 138 136 97 38 121 130 114 89 107 119 107 123 124 122 117 115 130 125 114 111 119 122 117 118 117 114 121 124 131 129 121 122 126 116 119 121 66 135 132 122 119 112 111 106 107 110 116 122 129 127 122 119 117 121 133 147 142 140 142 129 131 138 140 142 131 132 143 132 119 74 133 142 107 121 110 120 130 115 110 110 121 125 118 114 113 109 115 125 123 120
156 144 153 157 143 152 142 47 25 131 156 136 131 131 124 122 124 130 137 136 137 133 130 123 125 126 135 133 134 134 135 137 141 143 143 140 137 148 142 135 98 37 126 130 107 103 105 119 111 117 113 112 111 125 128 122 115 108 119 119 117 119 120 122 129 126 141 123 118 122 129 126 126 119 69 128 136 126 122 121 121 116 110 112 121 129 135 128 125 122 116 124 135 143 139 137 136 126 140 140 135 137 116 128 138 132 126 75 140 152 110 123 117 125 123 117 114 116 124 127 121 123 122 118 123 130 126 123
157 146 149 157 150 155 142 41 36 160 148 136 131 137 126 124 124 128 130 140 136 132 135 128 128 133 136 138 138 140 142 137 134 138 141 139 143 151 146 138 99 51 134 128 114 96 107 122 108 113 112 114 116 126 129 126 119 113 121 121 122 121 123 124 122 127 131 117 123 124 127 123 123 118 66 130 139 126 125 120 122 116 111 110 117 125 127 122 119 119 118 122 128 123 131 133 128 128 143 141 143 138 129 137 145 138 126 80 152 159 117 126 122 130 134 125 122 129 129 125 124 126 124 121 126 136 127 126
158 148 151 157 154 157 144 41 41 134 142 135 132 135 126 124 124 128 136 138 138 131 137 132 129 138 140 141 141 140 138 127 142 144 139 139 144 148 147 138 99 56 139 133 113 102 118 120 109 118 115 118 119 129 129 128 120 113 122 124 125 125 127 124 126 133 131 126 126 129 130 123 128 121 59 119 133 125 126 123 123 117 114 113 125 131 132 126 125 124 119 121 129 142 137 139 137 133 147 143 145 138 141 144 153 146 133 80 154 166 114 132 125 131 136 127 123 126 125 129 129 125 124 124 129 133 128 128
166 157 159 171 171 173 151 33 25 137 154 148 136 141 139 134 137 131 145 153 155 151 151 146 152 158 167 165 160 150 144 150 158 149 152 158 160 164 166 148 111 43 137 139 118 124 135 135 120 130 127 132 129 140 143 137 137 134 143 142 134 136 136 138 137 138 144 141 140 146 143 140 141 128 60 141 138 132 136 128 128 123 118 126 133 136 134 132 128 125 121 127 137 147 140 142 142 140 152 148 147 148 146 150 158 154 143 79 132 162 125 141 135 144 143 138 134 138 143 147 140 139 140 142 142 145 143 141
123 117 116 113 108 106 94 39 42 76 88 96 81 91 102 109 111 80 108 128 122 119 118 113 120 128 120 121 120 88 81 80 119 131 123 127 128 129 107 96 83 59 104 96 75 81 101 98 93 97 100 101 101 109 118 112 103 102 107 105 98 99 110 113 100 80 94 105 108 103 104 101 97 80 60 120 94 107 97 97 101 107 108 116 117 115 106 104 120 124 121 108 110 128 130 135 126 115 127 127 131 121 111 121 113 106 104 79 91 111 99 104 108 109 96 111 109 113 115 111 107 113 110 110 110 111 108 115
49 45 42 41 40 40 50 53 52 62 60 55 57 55 64 63 55 56 62 63 55 46 57 66 65 66 59 59 60 66 64 69 74 67 64 60 62 61 60 63 67 74 78 79 63 59 65 63 57 59 62 65 63 75 68 58 52 55 72 80 86 87 85 84 81 86 86 85 75 72 65 68 68 73 80 78 78 61 58 54 49 49 55 57 53 51 59 67 72 67 69 72 58 46 38 45 42 40 44 43 49 54 53 53 56 55 60 73 79 65 58 45 49 44 45 44 43 43 41 42 38 34 36 40 42 38 41 46
47 49 50 50 49 42 40 45 47 52 55 80 87 59 63 77 88 86 95 106 92 68 49 53 89 119 108 105 98 100 102 101 100 98 98 94 94 96 93 89 80 87 102 109 109 98 101 103 100 101 104 103 101 100 99 92 60 96 175 157 159 160 161 156 152 153 158 160 152 144 142 142 144 143 151 157 160 144 142 134 134 131 129 129 129 131 137 137 145 130 75 68 136 122 113 103 94 97 106 107 103 102 99 103 104 105 106 107 115 116 119 83 83 89 91 96 107 106 108 109 116 113 83 66 36 78 134 127
60 60 65 64 62 57 54 60 66 70 71 82 111 120 134 149 151 143 143 141 131 127 74 44 119 151 137 137 132 146 142 135 136 134 141 145 144 148 152 147 150 153 147 137 138 139 153 146 146 146 150 137 152 141 147 128 68 112 166 129 131 132 134 133 131 132 133 133 135 134 133 132 133 132 135 133 131 133 135 137 136 136 135 135 134 135 133 132 131 130 79 86 151 123 122 115 119 123 124 128 131 125 119 128 130 131 123 123 131 129 129 133 129 127 124 126 129 128 124 123 140 137 152 145 43 111 146 122
89 79 72 68 62 58 58 60 62 63 66 68 129 146 150 153 149 143 145 145 137 139 88 60 127 151 143 149 141 154 147 140 142 148 147 149 146 151 149 146 146 154 148 139 140 146 152 142 148 145 157 146 158 151 154 129 73 119 163 129 132 134 133 133 134 134 134 134 132 133 133 133 133 134 136 136 134 133 135 135 134 134 134 134 134 133 134 133 133 129 84 101 150 120 118 120 120 126 128 132 129 124 125 131 131 130 122 120 129 133 131 130 127 127 130 133 138 131 124 127 125 114 124 110 47 123 143 120
146 141 135 127 110 96 90 94 100 96 93 83 127 144 137 151 157 153 150 154 144 141 97 74 135 156 149 151 140 155 147 142 143 139 144 151 150 150 150 145 148 155 150 143 144 146 148 147 152 148 158 142 164 160 157 131 73 117 160 128 131 133 133 135 136 136 136 136 133 131 133 134 135 136 137 137 136 133 135 134 134 134 133 133 133 134 133 134 133 127 83 95 155 123 126 121 129 132 128 132 131 127 127 134 134 126 124 121 138 134 128 126 132 132 128 135 136 131 123 127 127 122 124 111 43 112 141 123
141 138 136 137 135 142 148 153 150 148 143 139 136 140 151 161 156 151 150 153 143 141 103 84 145 154 145 149 143 153 149 143 142 145 150 154 154 153 149 150 153 159 151 145 143 147 152 149 149 148 157 149 164 158 160 126 66 114 161 128 132 132 136 140 133 137 134 136 139 137 135 134 136 137 137 136 135 134 134 134 134 133 133 133 135 135 134 134 133 128 82 85 138 126 132 128 137 133 131 139 142 134 134 136 140 135 130 130 138 137 133 130 134 131 132 135 135 131 128 127 127 123 127 111 42 113 141 122
130 140 142 144 145 149 151 150 150 145 142 139 140 150 157 162 159 156 156 158 148 142 103 73 132 157 153 150 144 155 149 146 148 147 150 154 150 153 152 148 154 156 154 148 148 153 156 152 151 151 157 150 171 159 157 128 55 105 162 130 131 131 134 134 129 132 133 136 137 137 135 135 135 134 135 133 135 135 135 135 134 134 134 134 135 134 131 133 133 129 90 81 150 127 134 127 130 127 131 135 136 131 135 138 140 146 124 116 131 135 133 132 133 130 130 138 135 132 129 130 128 126 130 112 44 119 146 124
141 145 148 163 160 165 166 165 168 164 155 149 149 151 147 151 166 170 170 165 143 137 91 58 114 150 146 146 154 164 158 159 150 157 163 162 159 160 160 159 167 170 158 157 154 158 167 162 163 154 159 157 172 168 161 123 40 95 164 131 132 135 136 137 137 137 137 139 139 140 138 136 136 137 137 137 137 136 137 137 136 136 137 136 137 137 137 136 135 131 91 84 155 142 150 140 137 135 146 145 143 141 143 143 143 131 81 72 89 145 143 135 138 139 143 145 143 138 134 145 139 135 137 110 50 122 137 130
102 101 97 105 103 103 99 90 91 99 102 102 108 109 103 101 113 112 104 98 93 98 93 88 98 71 80 86 96 100 97 96 89 93 94 101 101 103 102 101 92 87 82 86 88 73 97 95 96 94 94 96 97 95 86 78 67 86 99 94 96 95 95 96 95 98 99 100 100 98 97 95 94 96 94 96 98 100 98 99 98 98 99 103 107 105 104 104 101 97 86 89 103 97 100 99 101 101 111 114 116 114 114 121 115 104 84 85 98 115 101 110 111 109 109 109 102 102 100 101 100 89 84 71 57 56 47 41
121 123 114 111 109 104 107 81 74 93 101 106 108 104 104 105 98 98 90 85 86 91 97 86 88 85 94 90 87 78 70 74 67 77 80 75 73 71 76 71 64 62 67 78 82 65 75 82 84 77 75 73 74 71 76 80 90 83 74 88 91 93 95 98 96 100 101 100 104 103 107 105 96 88 83 82 79 83 85 86 88 86 85 92 91 84 84 84 87 82 89 94 97 100 86 91 92 95 99 101 98 91 92 95 100 102 106 99 98 107 104 107 99 93 90 92 90 84 82 82 86 81 80 82 76 72 76 74
166 161 159 165 161 164 161 82 69 153 138 135 120 119 130 140 175 162 150 146 128 131 130 134 130 125 124 125 131 157 145 144 150 139 133 128 126 140 136 134 106 45 65 183 129 104 103 103 121 118 112 129 124 136 135 120 110 111 114 133 124 128 130 135 135 139 149 132 139 143 141 140 151 198 121 81 160 160 159 161 160 161 164 142 139 143 137 139 141 136 143 154 148 137 131 127 129 131 137 140 142 142 142 140 158 178 169 109 111 197 158 151 139 132 132 131 129 123 124 129 135 133 135 135 133 136 140 143
134 130 135 142 137 146 126 64 83 154 135 137 119 124 130 127 129 134 140 145 140 139 141 137 132 132 137 144 147 145 138 143 149 144 149 143 142 150 149 143 112 36 80 162 112 118 97 114 134 130 121 121 115 122 129 127 111 109 107 119 118 120 119 120 110 117 124 130 125 127 136 134 135 153 88 79 149 117 122 119 120 130 130 125 127 138 131 131 133 131 128 132 136 136 136 130 129 134 136 137 140 138 128 126 136 142 140 97 119 203 143 137 131 132 131 126 120 127 129 134 134 131 131 132 127 128 126 133
141 137 139 145 142 150 134 58 64 147 134 140 128 139 143 130 128 136 144 150 142 143 145 139 133 139 147 154 144 144 141 146 151 152 151 148 147 156 155 154 113 46 88 158 116 116 100 127 129 115 117 118 121 131 131 120 118 115 115 126 123 122 127 124 122 133 142 137 128 126 134 137 131 132 77 81 147 122 129 127 130 134 131 129 133 136 130 142 135 135 138 140 147 144 137 135 133 141 145 144 142 144 135 142 144 146 139 100 90 166 144 139 137 131 132 129 135 134 131 135 134 129 131 131 128 128 132 136
143 137 139 146 145 150 135 52 47 146 135 139 130 139 142 132 132 143 146 148 143 144 144 138 134 140 151 152 144 144 142 147 152 153 154 152 152 162 159 162 114 43 79 159 119 123 110 130 123 127 124 121 123 130 128 126 123 110 112 126 125 120 129 121 126 137 138 132 126 122 129 126 128 136 77 80 147 126 129 131 132 137 132 131 131 134 137 136 139 135 134 136 145 141 136 134 134 141 141 144 145 149 142 148 148 146 140 98 74 144 147 138 137 133 132 133 138 137 136 135 134 132 133 135 126 127 136 133
141 141 146 150 145 148 140 55 43 148 137 140 133 139 139 131 130 136 129 144 144 147 145 139 136 139 139 146 146 142 138 149 156 152 153 151 151 160 157 160 112 42 81 163 122 114 112 118 118 126 119 126 124 131 137 129 127 116 119 129 125 125 119 121 127 126 133 135 130 134 138 131 136 135 78 87 153 131 133 130 133 138 134 131 130 134 139 141 140 137 131 136 144 141 136 136 134 141 137 139 141 145 137 146 144 146 137 96 68 144 149 138 137 138 133 133 135 135 134 134 134 134 136 135 132 133 134 135
143 141 143 146 139 152 146 55 44 147 136 139 133 139 142 127 126 135 141 146 143 142 144 140 139 141 148 148 145 141 140 151 154 150 151 147 151 166 165 172 115 44 92 181 140 129 122 129 127 129 125 127 129 136 139 138 131 128 131 133 133 125 127 133 126 132 140 137 130 130 128 135 147 148 77 95 156 135 135 132 132 137 135 135 131 133 139 139 140 139 132 136 143 141 138 135 135 141 138 138 141 143 136 144 148 149 136 94 64 145 152 142 139 136 138 137 143 140 138 136 137 137 139 144 145 144 139 139
148 145 143 132 133 150 130 55 44 146 134 146 134 141 144 133 139 149 156 153 145 147 149 148 146 147 151 155 152 151 155 159 160 154 156 153 155 156 151 142 88 42 83 108 99 109 119 119 118 128 130 136 135 133 147 148 147 147 121 109 128 140 142 143 140 151 152 147 141 139 148 137 136 123 74 90 151 138 143 139 140 146 143 141 141 142 145 143 144 142 141 149 147 141 139 138 139 146 140 138 138 141 138 148 154 142 123 92 71 132 120 119 119 121 124 127 112 95 115 121 122 120 118 111 119 111 132 128
76 71 65 55 68 60 36 42 55 72 62 57 54 51 50 54 47 48 55 58 54 63 72 76 69 66 68 66 67 61 66 61 57 58 62 59 54 45 48 41 42 67 75 68 74 71 60 66 61 65 72 73 65 68 69 70 82 87 79 77 91 101 93 86 86 88 88 88 77 74 82 70 71 72 79 86 92 85 88 85 83 81 80 80 84 75 71 73 76 83 87 83 79 80 72 67 73 88 83 74 74 77 76 75 72 60 58 69 72 69 65 72 68 65 62 54 43 50 54 61 68 67 65 68 70 74 75 78
67 60 59 62 60 60 56 54 50 54 63 57 58 50 47 49 50 57 57 62 61 71 45 43 85 89 91 94 107 115 111 109 104 106 107 110 103 102 99 73 63 59 63 103 126 115 105 107 112 111 116 112 110 106 103 93 77 49 63 76 88 100 90 84 80 80 77 75 71 71 75 71 78 78 74 78 82 85 68 65 68 69 70 72 72 77 80 86 91 72 53 65 82 87 88 86 89 92 90 80 83 89 86 86 85 88 90 83 83 95 103 95 88 83 77 77 79 82 85 93 94 88 88 66 66 66 88 92
124 120 121 123 118 113 116 110 106 119 125 124 116 121 141 154 143 133 139 142 140 145 67 71 157 146 143 139 135 141 141 140 143 150 155 155 149 148 138 124 141 139 138 154 156 161 157 155 162 160 160 155 172 154 145 129 94 68 179 149 120 113 107 110 120 113 112 105 109 115 111 107 114 103 101 105 110 114 114 110 114 120 121 124 118 129 132 132 144 110 71 149 147 142 144 137 136 125 118 116 130 139 140 134 134 136 128 133 140 142 136 133 127 133 137 139 139 138 141 148 141 143 131 77 52 130 161 144
103 126 132 135 131 123 132 139 140 138 137 136 133 136 142 145 141 138 145 141 148 143 80 82 152 133 117 109 117 126 133 127 120 127 140 141 138 141 143 127 140 134 143 146 144 149 146 145 150 150 141 146 158 146 141 129 85 79 146 98 92 96 100 107 109 113 106 105 108 112 120 119 110 110 119 119 119 122 119 120 127 130 133 133 131 135 132 124 127 101 75 151 140 138 135 125 132 126 123 124 127 129 135 130 136 131 131 132 136 135 134 136 135 135 140 139 140 142 140 141 136 139 126 78 72 154 156 146
128 138 140 137 134 131 138 141 138 138 139 132 134 141 146 139 138 139 145 145 150 147 86 82 157 144 138 142 149 147 139 130 124 136 143 141 141 140 137 135 138 142 152 145 144 151 143 151 152 138 137 144 155 152 142 123 81 75 149 105 97 100 100 107 109 110 107 109 110 115 114 115 119 117 120 122 121 123 125 127 128 131 135 137 133 137 135 136 143 105 59 148 146 131 127 128 131 126 119 121 127 135 135 131 130 127 123 130 138 139 137 130 131 135 138 134 135 131 125 143 141 141 129 75 78 148 164 152
134 135 140 143 136 137 136 134 136 142 138 131 141 145 148 147 143 137 146 145 144 149 87 73 153 145 138 134 135 127 129 127 143 142 140 141 142 144 142 135 133 145 144 145 145 140 142 144 137 133 143 142 149 152 144 128 81 72 152 110 105 107 105 109 110 109 113 115 113 120 119 116 121 124 122 125 125 125 128 130 129 139 142 137 134 138 141 142 143 106 57 148 137 128 132 127 127 119 115 118 128 139 135 129 130 126 124 120 123 130 123 121 129 131 131 134 137 132 131 141 141 144 137 66 58 130 169 151
137 143 144 142 140 134 133 140 139 140 132 137 142 141 150 148 144 138 145 143 150 150 89 64 150 140 138 145 140 135 135 136 144 121 144 148 146 145 139 130 137 138 143 146 146 144 146 146 146 144 151 148 154 151 147 126 77 71 151 113 106 101 102 107 111 113 111 111 112 126 120 119 123 127 129 129 128 128 129 131 134 139 140 133 130 135 139 146 146 108 54 143 140 127 125 121 125 119 116 119 131 133 128 132 124 131 118 124 130 130 129 130 125 125 132 130 130 132 132 141 137 140 122 54 49 132 165 149
132 143 150 139 138 141 141 146 146 143 141 146 143 147 151 149 145 143 153 153 158 155 88 63 150 147 146 144 138 139 136 137 137 139 155 151 148 155 143 141 140 150 148 146 150 151 148 154 147 153 155 156 161 158 151 133 80 78 164 118 107 110 114 111 114 118 116 120 124 142 138 138 143 142 147 148 140 137 135 136 137 138 144 143 142 160 166 154 152 108 54 142 140 129 128 121 123 119 111 119 128 134 138 131 128 124 115 126 128 130 133 130 127 130 133 133 134 133 138 148 147 158 111 48 42 135 164 144
143 145 157 137 145 146 150 145 142 135 137 124 128 149 148 144 139 143 146 122 96 121 80 74 123 103 97 104 110 127 128 128 116 114 113 107 128 139 126 118 110 121 130 132 119 128 132 123 105 125 136 131 125 124 112 113 84 78 110 100 114 111 79 94 123 123 124 124 129 136 116 114 116 121 124 119 122 129 134 138 140 140 138 134 132 134 112 109 106 83 72 117 113 110 115 107 114 107 105 116 120 125 129 132 129 121 119 118 120 127 121 118 118 125 116 117 116 111 115 121 121 111 83 61 56 123 137 131
74 69 74 77 75 69 66 63 61 63 73 71 75 80 76 67 70 75 76 67 63 68 69 58 63 67 59 59 55 57 56 52 48 53 57 52 50 56 57 59 57 67 67 71 68 66 68 78 73 70 72 73 73 67 61 56 61 67 61 67 65 61 60 69 73 75 73 75 78 78 67 64 65 67 82 80 82 87 88 91 88 86 81 74 77 77 75 73 72 71 73 71 74 74 71 70 72 59 55 70 77 78 87 88 82 79 72 67 71 69 74 70 76 74 72 80 80 75 73 76 71 63 62 62 62 79 81 77
128 124 119 126 128 132 118 55 78 143 148 134 121 135 142 143 119 118 115 117 107 105 122 107 121 139 122 117 112 103 107 104 100 111 117 122 123 126 112 119 97 51 116 134 113 106 113 126 128 125 113 105 109 103 95 109 118 107 114 116 110 104 105 114 124 124 122 119 129 126 141 132 110 85 85 122 131 133 139 129 130 126 129 123 122 115 113 111 112 105 96 121 124 118 108 108 109 111 109 110 111 117 118 120 119 121 125 78 72 163 151 146 137 143 138 121 124 123 123 121 128 120 120 135 151 158 156 142
109 109 100 114 121 126 97 59 106 156 128 117 115 130 137 136 125 125 124 126 127 124 127 128 131 129 132 134 130 126 129 128 132 138 140 140 140 138 132 126 81 53 135 102 97 93 86 92 96 89 90 103 95 96 107 107 102 96 111 106 106 99 105 112 107 108 103 113 125 125 147 169 174 173 101 148 138 128 110 105 118 115 122 116 117 109 114 118 120 113 127 150 120 116 117 118 116 116 118 121 123 125 119 122 121 120 112 78 103 168 107 97 91 108 109 97 100 100 100 110 117 109 112 129 140 152 135 119
111 114 104 122 119 103 68 51 102 149 128 130 133 132 130 128 129 103 112 139 133 126 133 143 136 142 137 135 137 134 138 135 141 143 142 138 141 138 132 126 80 48 127 102 104 101 88 100 106 100 99 96 99 106 113 91 98 103 111 106 112 110 106 107 112 111 108 115 123 103 121 116 115 116 81 141 118 103 98 104 113 114 117 118 114 114 122 124 119 119 121 120 125 128 123 123 122 123 123 123 129 119 119 124 120 120 113 69 94 146 103 99 97 104 104 104 111 108 111 112 117 119 116 111 107 120 119 120
 